<?xml version="1.0" encoding="us-ascii" standalone="no"?><svg xmlns="http://www.w3.org/2000/svg" xmlns:xlink="http://www.w3.org/1999/xlink" contentStyleType="text/css" height="1705px" preserveAspectRatio="none" style="width:1582px;height:1705px;background:#FFFFFF;" version="1.1" viewBox="0 0 1582 1705" width="1582px" zoomAndPan="magnify"><defs/><g><text fill="#000000" font-family="Verdana" font-size="22" font-weight="bold" lengthAdjust="spacing" textLength="370" x="817.5" y="40.5201">&#26029;&#32447;&#37325;&#36830;&#36807;&#31243; - &#32447;&#31243;&#19982;&#20989;&#25968;&#25191;&#34892;&#26102;&#24207;&#22270;</text><rect fill="#FFFFFF" height="214.7999" style="stroke:#FFFFFF;stroke-width:1.0;" width="934" x="624" y="518.8161"/><rect fill="#FFFFFF" height="154.048" style="stroke:#FFFFFF;stroke-width:1.0;" width="507" x="643" y="554.568"/><rect fill="#FFFFFF" height="89.3999" style="stroke:#FFFFFF;stroke-width:1.0;" width="473" x="713" y="1205.784"/><line style="stroke:#000000;stroke-width:1.0;" x1="355" x2="355" y1="113.3999" y2="1644.6001"/><rect fill="#FFFFFF" height="1437.5521" style="stroke:#000000;stroke-width:1.0;" width="10" x="350" y="207.048"/><line style="stroke:#000000;stroke-width:1.0;" x1="659" x2="659" y1="113.3999" y2="1644.6001"/><rect fill="#FFFFFF" height="1183.608" style="stroke:#000000;stroke-width:1.0;" width="10" x="654" y="460.9921"/><line style="stroke:#000000;stroke-width:1.0;" x1="979" x2="979" y1="113.3999" y2="1644.6001"/><rect fill="#FFFFFF" height="496.6401" style="stroke:#000000;stroke-width:1.0;" width="10" x="974" y="1147.96"/><rect fill="#E0FFFF" height="54.5438" rx="2.5" ry="2.5" style="stroke:#000000;stroke-width:1.0;" width="106" x="302" y="57.8561"/><text fill="#000000" font-family="Verdana" font-size="14" lengthAdjust="spacing" textLength="42" x="334" y="81.096">&#20027;&#32447;&#31243;</text><text fill="#000000" font-family="Verdana" font-size="14" lengthAdjust="spacing" textLength="92" x="309" y="101.3679">(Main Thread)</text><rect fill="#FFFFE0" height="54.5438" rx="2.5" ry="2.5" style="stroke:#000000;stroke-width:1.0;" width="162" x="578" y="57.8561"/><text fill="#000000" font-family="Verdana" font-size="14" lengthAdjust="spacing" textLength="84" x="617" y="81.096">&#24515;&#36339;&#26816;&#27979;&#32447;&#31243;</text><text fill="#000000" font-family="Verdana" font-size="14" lengthAdjust="spacing" textLength="148" x="585" y="101.3679">(Health Check Thread)</text><rect fill="#FFB6C1" height="54.5438" rx="2.5" ry="2.5" style="stroke:#000000;stroke-width:1.0;" width="103" x="927.5" y="57.8561"/><text fill="#000000" font-family="Verdana" font-size="14" lengthAdjust="spacing" textLength="84" x="937" y="81.096">&#22238;&#25910;&#31561;&#24453;&#32447;&#31243;</text><text fill="#000000" font-family="Verdana" font-size="14" lengthAdjust="spacing" textLength="89" x="934.5" y="101.3679">(Wait Thread)</text><rect fill="#E0FFFF" height="54.5438" rx="2.5" ry="2.5" style="stroke:#000000;stroke-width:1.0;" width="106" x="302" y="1644.6001"/><text fill="#000000" font-family="Verdana" font-size="14" lengthAdjust="spacing" textLength="42" x="334" y="1667.84">&#20027;&#32447;&#31243;</text><text fill="#000000" font-family="Verdana" font-size="14" lengthAdjust="spacing" textLength="92" x="309" y="1688.1119">(Main Thread)</text><rect fill="#FFFFE0" height="54.5438" rx="2.5" ry="2.5" style="stroke:#000000;stroke-width:1.0;" width="162" x="578" y="1644.6001"/><text fill="#000000" font-family="Verdana" font-size="14" lengthAdjust="spacing" textLength="84" x="617" y="1667.84">&#24515;&#36339;&#26816;&#27979;&#32447;&#31243;</text><text fill="#000000" font-family="Verdana" font-size="14" lengthAdjust="spacing" textLength="148" x="585" y="1688.1119">(Health Check Thread)</text><rect fill="#FFB6C1" height="54.5438" rx="2.5" ry="2.5" style="stroke:#000000;stroke-width:1.0;" width="103" x="927.5" y="1644.6001"/><text fill="#000000" font-family="Verdana" font-size="14" lengthAdjust="spacing" textLength="84" x="937" y="1667.84">&#22238;&#25910;&#31561;&#24453;&#32447;&#31243;</text><text fill="#000000" font-family="Verdana" font-size="14" lengthAdjust="spacing" textLength="89" x="934.5" y="1688.1119">(Wait Thread)</text><path d="M10,126.3999 L10,154.3999 L1324,154.3999 L1324,136.3999 L1314,126.3999 L10,126.3999 " fill="#FFFFFF" style="stroke:#000000;stroke-width:1.0;"/><path d="M1314,126.3999 L1314,136.3999 L1324,136.3999 L1314,126.3999 " fill="#FFFFFF" style="stroke:#000000;stroke-width:1.0;"/><text fill="#000000" font-family="Verdana" font-size="13" font-weight="bold" lengthAdjust="spacing" textLength="1293" x="16" y="146.4799">&#26412;&#22270;&#29992;&#20110;&#20998;&#26512;&#24403;&#21069;&#37319;&#38598;&#26550;&#26500;&#20013;&#26029;&#32447;&#37325;&#36830;&#21151;&#33021;&#30456;&#20851;&#30340;&#32447;&#31243;&#20132;&#20114;&#20851;&#31995;&#65292;&#22270;&#20013;&#27599;&#20010;participant&#23545;&#24212;&#19968;&#20010;&#29420;&#31435;&#32447;&#31243;&#12290;&#20026;&#31616;&#21270;&#34920;&#36798;&#65292;&#22270;&#20013;&#19981;&#21306;&#20998;&#20989;&#25968;&#35843;&#29992;&#30340;&#23884;&#22871;&#19982;&#20018;&#34892;&#32467;&#26500;&#65292;&#26088;&#22312;&#21576;&#29616;&#32447;&#31243;&#38388;&#30340;&#26680;&#24515;&#36923;&#36753;&#27969;&#31243;&#65292;&#20855;&#20307;&#35821;&#20041;&#35831;&#32467;&#21512;&#19978;&#19979;&#25991;&#29702;&#35299;&#12290;</text><rect fill="#FFFFFF" height="3" style="stroke:#FFFFFF;stroke-width:1.0;" width="1562" x="5" y="182.636"/><line style="stroke:#000000;stroke-width:0.5;" x1="5" x2="1567" y1="182.636" y2="182.636"/><line style="stroke:#000000;stroke-width:0.5;" x1="5" x2="1567" y1="185.636" y2="185.636"/><rect fill="#FFFFFF" height="26.824" style="stroke:#000000;stroke-width:1.0;" width="110" x="731" y="170.2239"/><text fill="#000000" font-family="Verdana" font-size="13" font-weight="bold" lengthAdjust="spacing" textLength="93" x="737" y="189.304">1. &#26029;&#32447;&#26816;&#27979;&#38454;&#27573;</text><line style="stroke:#000000;stroke-width:1.0;" x1="360" x2="402" y1="231.872" y2="231.872"/><line style="stroke:#000000;stroke-width:1.0;" x1="402" x2="402" y1="231.872" y2="244.872"/><line style="stroke:#000000;stroke-width:1.0;" x1="361" x2="402" y1="244.872" y2="244.872"/><polygon fill="#000000" points="371,240.872,361,244.872,371,248.872,367,244.872" style="stroke:#000000;stroke-width:1.0;"/><text fill="#000000" font-family="Verdana" font-size="13" lengthAdjust="spacing" textLength="169" x="367" y="226.128">&#24212;&#29992;&#31243;&#24207;&#21551;&#21160;&#27969;&#31243;&#65288;&#20855;&#20307;&#30053;&#65289;</text><line style="stroke:#000000;stroke-width:1.0;" x1="360" x2="402" y1="277.696" y2="277.696"/><line style="stroke:#000000;stroke-width:1.0;" x1="402" x2="402" y1="277.696" y2="290.696"/><line style="stroke:#000000;stroke-width:1.0;" x1="361" x2="402" y1="290.696" y2="290.696"/><polygon fill="#000000" points="371,286.696,361,290.696,371,294.696,367,290.696" style="stroke:#000000;stroke-width:1.0;"/><text fill="#000000" font-family="Verdana" font-size="13" lengthAdjust="spacing" textLength="82" x="367" y="271.952">OpenDevice()</text><line style="stroke:#000000;stroke-width:1.0;" x1="360" x2="402" y1="323.52" y2="323.52"/><line style="stroke:#000000;stroke-width:1.0;" x1="402" x2="402" y1="323.52" y2="336.52"/><line style="stroke:#000000;stroke-width:1.0;" x1="361" x2="402" y1="336.52" y2="336.52"/><polygon fill="#000000" points="371,332.52,361,336.52,371,340.52,367,336.52" style="stroke:#000000;stroke-width:1.0;"/><text fill="#000000" font-family="Verdana" font-size="13" lengthAdjust="spacing" textLength="205" x="367" y="317.776">NotifyEventHandeler(OnOpened);</text><line style="stroke:#000000;stroke-width:1.0;" x1="360" x2="402" y1="369.344" y2="369.344"/><line style="stroke:#000000;stroke-width:1.0;" x1="402" x2="402" y1="369.344" y2="382.344"/><line style="stroke:#000000;stroke-width:1.0;" x1="361" x2="402" y1="382.344" y2="382.344"/><polygon fill="#000000" points="371,378.344,361,382.344,371,386.344,367,382.344" style="stroke:#000000;stroke-width:1.0;"/><text fill="#000000" font-family="Verdana" font-size="13" lengthAdjust="spacing" textLength="195" x="367" y="363.6">ReconnectHandler::OnOpened()</text><line style="stroke:#000000;stroke-width:1.0;" x1="360" x2="402" y1="415.168" y2="415.168"/><line style="stroke:#000000;stroke-width:1.0;" x1="402" x2="402" y1="415.168" y2="428.168"/><line style="stroke:#000000;stroke-width:1.0;" x1="361" x2="402" y1="428.168" y2="428.168"/><polygon fill="#000000" points="371,424.168,361,428.168,371,432.168,367,428.168" style="stroke:#000000;stroke-width:1.0;"/><text fill="#000000" font-family="Verdana" font-size="13" lengthAdjust="spacing" textLength="158" x="367" y="409.424">StartHealthCheckThread()</text><polygon fill="#000000" points="642,456.9921,652,460.9921,642,464.9921,646,460.9921" style="stroke:#000000;stroke-width:1.0;"/><line style="stroke:#000000;stroke-width:1.0;" x1="360" x2="648" y1="460.9921" y2="460.9921"/><text fill="#000000" font-family="Verdana" font-size="13" lengthAdjust="spacing" textLength="149" x="367" y="455.2481">&#21019;&#24314;&#24515;&#36339;&#26816;&#27979;&#32447;&#31243; detach</text><line style="stroke:#000000;stroke-width:1.0;" x1="360" x2="402" y1="493.8161" y2="493.8161"/><line style="stroke:#000000;stroke-width:1.0;" x1="402" x2="402" y1="493.8161" y2="506.8161"/><line style="stroke:#000000;stroke-width:1.0;" x1="361" x2="402" y1="506.8161" y2="506.8161"/><polygon fill="#000000" points="371,502.8161,361,506.8161,371,510.8161,367,506.8161" style="stroke:#000000;stroke-width:1.0;"/><text fill="#000000" font-family="Verdana" font-size="13" lengthAdjust="spacing" textLength="78" x="367" y="488.0721">&#32487;&#32493;&#21518;&#32493;&#27969;&#31243;</text><path d="M624,518.8161 L686,518.8161 L686,529.6401 L676,539.6401 L624,539.6401 L624,518.8161 " fill="#FFFFFF" style="stroke:#000000;stroke-width:1.0;"/><rect fill="none" height="1023.136" style="stroke:#000000;stroke-width:1.0;" width="934" x="624" y="518.8161"/><text fill="#000000" font-family="Verdana" font-size="13" font-weight="bold" lengthAdjust="spacing" textLength="17" x="639" y="534.8961">alt</text><text fill="#000000" font-family="Verdana" font-size="11" font-weight="bold" lengthAdjust="spacing" textLength="24" x="701" y="533.576">[try]</text><line style="stroke:#000000;stroke-width:1.0;stroke-dasharray:2.0,2.0;" x1="624" x2="1558" y1="733.6159" y2="733.6159"/><text fill="#000000" font-family="Verdana" font-size="11" font-weight="bold" lengthAdjust="spacing" textLength="64" x="629" y="748.3758">[catch &#24322;&#24120;]</text><path d="M643,554.568 L716,554.568 L716,565.392 L706,575.392 L643,575.392 L643,554.568 " fill="#FFFFFF" style="stroke:#000000;stroke-width:1.0;"/><rect fill="none" height="154.048" style="stroke:#000000;stroke-width:1.0;" width="507" x="643" y="554.568"/><text fill="#000000" font-family="Verdana" font-size="13" font-weight="bold" lengthAdjust="spacing" textLength="28" x="658" y="570.648">loop</text><text fill="#000000" font-family="Verdana" font-size="11" font-weight="bold" lengthAdjust="spacing" textLength="230" x="731" y="569.3279">[while(is_health_check_thread_running_)]</text><line style="stroke:#000000;stroke-width:1.0;" x1="664" x2="706" y1="611.1439" y2="611.1439"/><line style="stroke:#000000;stroke-width:1.0;" x1="706" x2="706" y1="611.1439" y2="624.1439"/><line style="stroke:#000000;stroke-width:1.0;" x1="665" x2="706" y1="624.1439" y2="624.1439"/><polygon fill="#000000" points="675,620.1439,665,624.1439,675,628.1439,671,624.1439" style="stroke:#000000;stroke-width:1.0;"/><text fill="#000000" font-family="Verdana" font-size="13" lengthAdjust="spacing" textLength="100" x="671" y="605.3999">SendHeartBeat()</text><path d="M783,591.3199 L783,657.3199 L1129,657.3199 L1129,601.3199 L1119,591.3199 L783,591.3199 " fill="#FFFFFF" style="stroke:#000000;stroke-width:1.0;"/><path d="M1119,591.3199 L1119,601.3199 L1129,601.3199 L1119,591.3199 " fill="#FFFFFF" style="stroke:#000000;stroke-width:1.0;"/><text fill="#000000" font-family="Verdana" font-size="13" lengthAdjust="spacing" textLength="325" x="789" y="611.3999">&#35775;&#38382;&#30456;&#26426;&#23492;&#23384;&#22120;&#20197;&#30830;&#35748;&#36830;&#25509;&#29366;&#24577;&#65292;&#20855;&#20307;&#25805;&#20316;&#19982;&#21697;&#29260;&#30456;&#20851;&#65292;</text><text fill="#000000" font-family="Verdana" font-size="13" lengthAdjust="spacing" textLength="286" x="789" y="630.2239">&#33509;&#35775;&#38382;&#23492;&#23384;&#22120;&#22833;&#36133;&#65292;&#24847;&#21619;&#30528;&#30456;&#26426;&#24050;&#29289;&#29702;&#26029;&#24320;&#36830;&#25509;&#65292;</text><text fill="#000000" font-family="Verdana" font-size="13" lengthAdjust="spacing" textLength="78" x="789" y="649.0479">&#20989;&#25968;&#25243;&#20986;&#24322;&#24120;</text><line style="stroke:#000000;stroke-width:1.0;" x1="664" x2="706" y1="687.6159" y2="687.6159"/><line style="stroke:#000000;stroke-width:1.0;" x1="706" x2="706" y1="687.6159" y2="700.6159"/><line style="stroke:#000000;stroke-width:1.0;" x1="665" x2="706" y1="700.6159" y2="700.6159"/><polygon fill="#000000" points="675,696.6159,665,700.6159,675,704.6159,671,700.6159" style="stroke:#000000;stroke-width:1.0;"/><text fill="#000000" font-family="Verdana" font-size="13" lengthAdjust="spacing" textLength="60" x="671" y="681.8719">sleep(1&#31186;)</text><line style="stroke:#000000;stroke-width:1.0;" x1="664" x2="706" y1="781.3678" y2="781.3678"/><line style="stroke:#000000;stroke-width:1.0;" x1="706" x2="706" y1="781.3678" y2="794.3678"/><line style="stroke:#000000;stroke-width:1.0;" x1="665" x2="706" y1="794.3678" y2="794.3678"/><polygon fill="#000000" points="675,790.3678,665,794.3678,675,798.3678,671,794.3678" style="stroke:#000000;stroke-width:1.0;"/><text fill="#000000" font-family="Verdana" font-size="13" lengthAdjust="spacing" textLength="52" x="671" y="775.6238">&#29366;&#24577;&#26356;&#26032;</text><line style="stroke:#000000;stroke-width:1.0;" x1="664" x2="706" y1="827.1919" y2="827.1919"/><line style="stroke:#000000;stroke-width:1.0;" x1="706" x2="706" y1="827.1919" y2="840.1919"/><line style="stroke:#000000;stroke-width:1.0;" x1="665" x2="706" y1="840.1919" y2="840.1919"/><polygon fill="#000000" points="675,836.1919,665,840.1919,675,844.1919,671,840.1919" style="stroke:#000000;stroke-width:1.0;"/><text fill="#000000" font-family="Verdana" font-size="13" lengthAdjust="spacing" textLength="301" x="671" y="821.4479">NotifyEventHandeler(OnCameraDeviceRemoved);</text><line style="stroke:#000000;stroke-width:1.0;" x1="664" x2="706" y1="873.0159" y2="873.0159"/><line style="stroke:#000000;stroke-width:1.0;" x1="706" x2="706" y1="873.0159" y2="886.0159"/><line style="stroke:#000000;stroke-width:1.0;" x1="665" x2="706" y1="886.0159" y2="886.0159"/><polygon fill="#000000" points="675,882.0159,665,886.0159,675,890.0159,671,886.0159" style="stroke:#000000;stroke-width:1.0;"/><text fill="#000000" font-family="Verdana" font-size="13" lengthAdjust="spacing" textLength="93" x="671" y="867.2719">StopGrabbing()</text><line style="stroke:#000000;stroke-width:1.0;" x1="664" x2="706" y1="918.8399" y2="918.8399"/><line style="stroke:#000000;stroke-width:1.0;" x1="706" x2="706" y1="918.8399" y2="931.8399"/><line style="stroke:#000000;stroke-width:1.0;" x1="665" x2="706" y1="931.8399" y2="931.8399"/><polygon fill="#000000" points="675,927.8399,665,931.8399,675,935.8399,671,931.8399" style="stroke:#000000;stroke-width:1.0;"/><text fill="#000000" font-family="Verdana" font-size="13" lengthAdjust="spacing" textLength="82" x="671" y="913.0959">CloseDevice()</text><line style="stroke:#000000;stroke-width:1.0;" x1="664" x2="706" y1="964.6639" y2="964.6639"/><line style="stroke:#000000;stroke-width:1.0;" x1="706" x2="706" y1="964.6639" y2="977.6639"/><line style="stroke:#000000;stroke-width:1.0;" x1="665" x2="706" y1="977.6639" y2="977.6639"/><polygon fill="#000000" points="675,973.6639,665,977.6639,675,981.6639,671,977.6639" style="stroke:#000000;stroke-width:1.0;"/><text fill="#000000" font-family="Verdana" font-size="13" lengthAdjust="spacing" textLength="186" x="671" y="958.9199">NotifyEventHandeler(OnClose)</text><line style="stroke:#000000;stroke-width:1.0;" x1="664" x2="706" y1="1010.4879" y2="1010.4879"/><line style="stroke:#000000;stroke-width:1.0;" x1="706" x2="706" y1="1010.4879" y2="1023.4879"/><line style="stroke:#000000;stroke-width:1.0;" x1="665" x2="706" y1="1023.4879" y2="1023.4879"/><polygon fill="#000000" points="675,1019.4879,665,1023.4879,675,1027.4879,671,1023.4879" style="stroke:#000000;stroke-width:1.0;"/><text fill="#000000" font-family="Verdana" font-size="13" lengthAdjust="spacing" textLength="180" x="671" y="1004.7439">ReconnectHandler::OnClose()</text><line style="stroke:#000000;stroke-width:1.0;" x1="664" x2="706" y1="1056.3119" y2="1056.3119"/><line style="stroke:#000000;stroke-width:1.0;" x1="706" x2="706" y1="1056.3119" y2="1069.3119"/><line style="stroke:#000000;stroke-width:1.0;" x1="665" x2="706" y1="1069.3119" y2="1069.3119"/><polygon fill="#000000" points="675,1065.3119,665,1069.3119,675,1073.3119,671,1069.3119" style="stroke:#000000;stroke-width:1.0;"/><text fill="#000000" font-family="Verdana" font-size="13" lengthAdjust="spacing" textLength="157" x="671" y="1050.5679">StopHealthCheckThread()</text><line style="stroke:#000000;stroke-width:1.0;" x1="664" x2="706" y1="1102.136" y2="1102.136"/><line style="stroke:#000000;stroke-width:1.0;" x1="706" x2="706" y1="1102.136" y2="1115.136"/><line style="stroke:#000000;stroke-width:1.0;" x1="665" x2="706" y1="1115.136" y2="1115.136"/><polygon fill="#000000" points="675,1111.136,665,1115.136,675,1119.136,671,1115.136" style="stroke:#000000;stroke-width:1.0;"/><text fill="#000000" font-family="Verdana" font-size="13" lengthAdjust="spacing" textLength="52" x="671" y="1096.392">&#29366;&#24577;&#26356;&#26032;</text><polygon fill="#000000" points="962,1143.96,972,1147.96,962,1151.96,966,1147.96" style="stroke:#000000;stroke-width:1.0;"/><line style="stroke:#000000;stroke-width:1.0;" x1="664" x2="968" y1="1147.96" y2="1147.96"/><text fill="#000000" font-family="Verdana" font-size="13" lengthAdjust="spacing" textLength="149" x="671" y="1142.216">&#21019;&#24314;&#22238;&#25910;&#31561;&#24453;&#32447;&#31243; detach</text><line style="stroke:#000000;stroke-width:1.0;" x1="664" x2="706" y1="1180.784" y2="1180.784"/><line style="stroke:#000000;stroke-width:1.0;" x1="706" x2="706" y1="1180.784" y2="1193.784"/><line style="stroke:#000000;stroke-width:1.0;" x1="665" x2="706" y1="1193.784" y2="1193.784"/><polygon fill="#000000" points="675,1189.784,665,1193.784,675,1197.784,671,1193.784" style="stroke:#000000;stroke-width:1.0;"/><text fill="#000000" font-family="Verdana" font-size="13" lengthAdjust="spacing" textLength="230" x="671" y="1175.04">&#23581;&#35797;&#37325;&#36830;&#65288;&#24490;&#29615;OpenDevice&#65292;&#32454;&#33410;&#30053;&#65289;</text><path d="M713,1205.784 L775,1205.784 L775,1216.608 L765,1226.608 L713,1226.608 L713,1205.784 " fill="#FFFFFF" style="stroke:#000000;stroke-width:1.0;"/><rect fill="none" height="89.3999" style="stroke:#000000;stroke-width:1.0;" width="473" x="713" y="1205.784"/><text fill="#000000" font-family="Verdana" font-size="13" font-weight="bold" lengthAdjust="spacing" textLength="17" x="728" y="1221.864">alt</text><text fill="#000000" font-family="Verdana" font-size="11" font-weight="bold" lengthAdjust="spacing" textLength="95" x="790" y="1220.5439">[&#24515;&#36339;&#32447;&#31243;joinable]</text><line style="stroke:#000000;stroke-width:1.0;" x1="984" x2="1026" y1="1262.3599" y2="1262.3599"/><line style="stroke:#000000;stroke-width:1.0;" x1="1026" x2="1026" y1="1262.3599" y2="1275.3599"/><line style="stroke:#000000;stroke-width:1.0;" x1="985" x2="1026" y1="1275.3599" y2="1275.3599"/><polygon fill="#000000" points="995,1271.3599,985,1275.3599,995,1279.3599,991,1275.3599" style="stroke:#000000;stroke-width:1.0;"/><text fill="#000000" font-family="Verdana" font-size="13" lengthAdjust="spacing" textLength="172" x="991" y="1256.6159">health_check_thread_.join()</text><path d="M734,1242.5359 L734,1289.5359 L974,1289.5359 L974,1252.5359 L964,1242.5359 L734,1242.5359 " fill="#FFFFFF" style="stroke:#000000;stroke-width:1.0;"/><path d="M964,1242.5359 L964,1252.5359 L974,1252.5359 L964,1242.5359 " fill="#FFFFFF" style="stroke:#000000;stroke-width:1.0;"/><text fill="#000000" font-family="Verdana" font-size="13" lengthAdjust="spacing" textLength="143" x="740" y="1262.6159">&#31561;&#24453;&#24515;&#36339;&#32447;&#31243;&#23436;&#20840;&#32467;&#26463;&#65292;</text><text fill="#000000" font-family="Verdana" font-size="13" lengthAdjust="spacing" textLength="219" x="740" y="1281.4399">&#23454;&#38469;&#19978;&#24515;&#36339;&#26816;&#27979;&#32447;&#31243;&#27704;&#36828;&#19981;&#20250;&#27491;&#24120;join</text><line style="stroke:#000000;stroke-width:1.0;" x1="664" x2="706" y1="1334.0079" y2="1334.0079"/><line style="stroke:#000000;stroke-width:1.0;" x1="706" x2="706" y1="1334.0079" y2="1347.0079"/><line style="stroke:#000000;stroke-width:1.0;" x1="665" x2="706" y1="1347.0079" y2="1347.0079"/><polygon fill="#000000" points="675,1343.0079,665,1347.0079,675,1351.0079,671,1347.0079" style="stroke:#000000;stroke-width:1.0;"/><text fill="#000000" font-family="Verdana" font-size="13" lengthAdjust="spacing" textLength="52" x="671" y="1328.2639">&#37325;&#36830;&#25104;&#21151;</text><line style="stroke:#000000;stroke-width:1.0;" x1="664" x2="706" y1="1379.832" y2="1379.832"/><line style="stroke:#000000;stroke-width:1.0;" x1="706" x2="706" y1="1379.832" y2="1392.832"/><line style="stroke:#000000;stroke-width:1.0;" x1="665" x2="706" y1="1392.832" y2="1392.832"/><polygon fill="#000000" points="675,1388.832,665,1392.832,675,1396.832,671,1392.832" style="stroke:#000000;stroke-width:1.0;"/><text fill="#000000" font-family="Verdana" font-size="13" lengthAdjust="spacing" textLength="82" x="671" y="1374.0879">OpenDevice()</text><line style="stroke:#000000;stroke-width:1.0;" x1="664" x2="706" y1="1425.656" y2="1425.656"/><line style="stroke:#000000;stroke-width:1.0;" x1="706" x2="706" y1="1425.656" y2="1438.656"/><line style="stroke:#000000;stroke-width:1.0;" x1="665" x2="706" y1="1438.656" y2="1438.656"/><polygon fill="#000000" points="675,1434.656,665,1438.656,675,1442.656,671,1438.656" style="stroke:#000000;stroke-width:1.0;"/><text fill="#000000" font-family="Verdana" font-size="13" lengthAdjust="spacing" textLength="74" x="671" y="1419.912">OnOpened()</text><line style="stroke:#000000;stroke-width:1.0;" x1="664" x2="706" y1="1471.48" y2="1471.48"/><line style="stroke:#000000;stroke-width:1.0;" x1="706" x2="706" y1="1471.48" y2="1484.48"/><line style="stroke:#000000;stroke-width:1.0;" x1="665" x2="706" y1="1484.48" y2="1484.48"/><polygon fill="#000000" points="675,1480.48,665,1484.48,675,1488.48,671,1484.48" style="stroke:#000000;stroke-width:1.0;"/><text fill="#000000" font-family="Verdana" font-size="13" lengthAdjust="spacing" textLength="158" x="671" y="1465.736">StartHealthCheckThread()</text><path d="M841,1451.656 L841,1536.656 L1537,1536.656 L1537,1461.656 L1527,1451.656 L841,1451.656 " fill="#FFFFFF" style="stroke:#000000;stroke-width:1.0;"/><path d="M1527,1451.656 L1527,1461.656 L1537,1461.656 L1527,1451.656 " fill="#FFFFFF" style="stroke:#000000;stroke-width:1.0;"/><text fill="#000000" font-family="Verdana" font-size="13" lengthAdjust="spacing" textLength="675" x="847" y="1471.736">&#38382;&#39064;&#20986;&#29616;&#22312;&#36825;&#37324;&#65292;&#22240;&#20026;OnCameraDeviceRemoved&#27809;&#26377;&#25191;&#34892;&#23436;&#65292;&#25152;&#20197;health_check_thread_&#31649;&#29702;&#30340;&#32447;&#31243;&#36824;&#27809;&#26377;&#32467;&#26463;&#65292;</text><text fill="#000000" font-family="Verdana" font-size="13" lengthAdjust="spacing" textLength="275" x="847" y="1490.56">&#20294;&#26159;&#21448;&#37325;&#26032;&#35843;&#29992;&#20102;StartHealthCheckThread()&#65292;</text><text fill="#000000" font-family="Verdana" font-size="13" lengthAdjust="spacing" textLength="487" x="847" y="1509.384">&#36825;&#23601;&#23548;&#33268;&#20102;&#22312;&#26087;&#32447;&#31243;&#26410;&#22238;&#25910;&#30340;&#24773;&#20917;&#19979;&#65292;&#36171;&#20104;health_check_thread_&#19968;&#20010;&#26032;&#32447;&#31243;&#36164;&#28304;&#12290;</text><text fill="#000000" font-family="Verdana" font-size="13" lengthAdjust="spacing" textLength="169" x="847" y="1528.208">&#31243;&#24207;&#23601;&#20250;&#31435;&#21363;&#23849;&#28291;&#24182;&#25243;&#20986;&#24322;&#24120;</text><polygon fill="#000000" points="1555,1576.7761,1565,1580.7761,1555,1584.7761,1559,1580.7761" style="stroke:#000000;stroke-width:1.0;"/><line style="stroke:#000000;stroke-width:1.0;" x1="664" x2="1561" y1="1580.7761" y2="1580.7761"/><text fill="#000000" font-family="Verdana" font-size="13" lengthAdjust="spacing" textLength="162" x="671" y="1575.032">&#21019;&#24314;&#26032;&#24515;&#36339;&#26816;&#27979;&#32447;&#31243; detach</text><line style="stroke:#000000;stroke-width:1.0;" x1="360" x2="402" y1="1613.6001" y2="1613.6001"/><line style="stroke:#000000;stroke-width:1.0;" x1="402" x2="402" y1="1613.6001" y2="1626.6001"/><line style="stroke:#000000;stroke-width:1.0;" x1="361" x2="402" y1="1626.6001" y2="1626.6001"/><polygon fill="#000000" points="371,1622.6001,361,1626.6001,371,1630.6001,367,1626.6001" style="stroke:#000000;stroke-width:1.0;"/><text fill="#000000" font-family="Verdana" font-size="13" lengthAdjust="spacing" textLength="104" x="367" y="1607.8561">&#24212;&#29992;&#31243;&#24207;&#32487;&#32493;&#36816;&#34892;</text><!--SRC=[hLPRJnj757xVNp59NmngekQjeg8FfLNpq3PH4gcgH8KMUuAtB6lBtX3H9uUBxnWJBeROa52mS6XyuMAph6tyOxepitxAN-XPZ_456uIb-67bdPtppPbpplUTSqzruXcCtB8eAS8zjqUScX6HYbr_8zNp2Wk2TrfItA97d47mL2Mxv1OLzQdeS4ZA5Fhs6q5G9LN6Y6vccLwh1vRDsgvP2x1C13r0i09_32r60bMwKQ2XGtClIXCbeg-GvAKW21sGwBwXbRd1k6Bx5Rn1BvmUB3g6xYFHYwm5_ew- -aMQSgfZSwBIRKzg2-RvATttqMAa1VGOYxBgH6DER9_k0kGV6kjTk7zWMNQzHkWQTdANhfTODaGkbrhOlukIseLfBNI1FPMKQK5GN2f6hbdiwRZ5rnsRXU5Xcle44M7h6KEFaQ2VxiP9TOs4bkk1G3q9hoMwksXesSuea_1xSw7AaXfPEcNl5fknrWyC_QsrSbh-N8a2fcMLNp6qeuxxaFm5qTSDpGVBBFA9_TkCrt- -UKFJMSv7eflcNiQyl6nX6DeoYUhW6a-bMLW0P-5OKeoIT09IR6Wda5nMNWDFmOecCYIL8Qj15Yjmy7hY3FRJ3nhagUuhcvUhjFW6rgqZbiwDwfgPpneN8JD_3Y0a7ZIqiA55w6Q0nVtcuJxuDZmiOCM1h712xOoEeaSFctN7arxVAj5S4OsE2g9TbMP5Y7exu4971JtulkF3289OM9V9HAowZET9E7FbMP1xnZRIdokXMn2UkB7o8vwLxDWsTCkstrogz7Bkfrcig8z5nO5bxB4zKInZx1ZwxXR3PzZkKXHiRvY1rSZ8bTcjvprN8USzXGucrsnwja1CWabIrdifXHnO5UtETeHxR6_nXvKFMJbBuZ5uyX137i4Sf6OE2GX-iilbHg-TaenjadV2sS2Ui5lW4se3PCBpIb50UYQ66lkjNo-J-r_fEHGFB7lK7x2esjhs3NfwBBgE83DNgoToG2gQqab-aMIto7R6AAVPNixC7G3hQ2pDmYNgUzCgMxgsR5HJbiYjlM6XA2SaV1rNp4YQuxMGoC6nUPQswB6uGbPFsOwlUTJv2GjzX4A7SYOL7p-dWT5Kpd2I17HIcIUQDl2zlJB6RjiZTlYMtnd2863PYv5TLErEn55v-EyAoKD0asTqip2GONy6Z8aps2Do0Zt3Co2L5Xq6ogtgSl_i4ISdeJIQgRshwPZiyk8MUR_0PIoymO3wqRi1Cw13LXJwqVtBfxRTl5fIqTCXhwJ20cd9HKVN6yGhKjWnynkyyLcoV7d4OlcswW9LMDblXkURIjqu4dI5wnTtvo-Nf8YJCcxnfwDRNxjHFzrvQDbVLmqPlmJHu9VkF8laG1moLZFSUSzfdDkjRoz1I-jLL5hGp1henx9HUKUp-y15wwGMKmU94eyF3SPXDXZ8iAj_3MJORaE35UeDZUcw7eDurl_P0ks3CGBc2REsNGz46qF91vXK-Ye7FTcZgH2VDI4FbjY6V23X_PBASdiWkgtfoQnjSUkEp1bLFztAavKW11SemGSVG_VVT0Mk_BLjKZWc-OePE8Ezu3bD73RJdJfgKWM6eOKbuY_2b0D6PX66js0_9_cS1cStdImkKZqEuz2uqXnP2iTGEZ34aULJSlQHwWlaejJLCQmw4lhbvazqHL-0lxdPtt5suktThCKXyiB_]--></g></svg>