<?xml version="1.0" encoding="us-ascii" standalone="no"?><svg xmlns="http://www.w3.org/2000/svg" xmlns:xlink="http://www.w3.org/1999/xlink" contentStyleType="text/css" height="2000px" preserveAspectRatio="none" style="width:1371px;height:2000px;background:#FFFFFF;" version="1.1" viewBox="0 0 1371 2000" width="1371px" zoomAndPan="magnify"><defs/><g><text fill="#000000" font-family="Verdana" font-size="22" font-weight="bold" lengthAdjust="spacing" textLength="370" x="550.75" y="40.5201">&#26029;&#32447;&#37325;&#36830;&#36807;&#31243; - &#32447;&#31243;&#19982;&#20989;&#25968;&#25191;&#34892;&#26102;&#24207;&#22270;</text><rect fill="#FFFFFF" height="214.7999" style="stroke:#FFFFFF;stroke-width:1.0;" width="551" x="462.5" y="518.8161"/><rect fill="#FFFFFF" height="154.048" style="stroke:#FFFFFF;stroke-width:1.0;" width="507" x="481.5" y="554.568"/><rect fill="#FFFFFF" height="77.5759" style="stroke:#FFFFFF;stroke-width:1.0;" width="384" x="963.5" y="1484.7281"/><line style="stroke:#000000;stroke-width:1.0;" x1="193.5" x2="193.5" y1="113.3999" y2="1939.8961"/><rect fill="#FFFFFF" height="1732.8482" style="stroke:#000000;stroke-width:1.0;" width="10" x="188.5" y="207.048"/><line style="stroke:#000000;stroke-width:1.0;" x1="497.5" x2="497.5" y1="113.3999" y2="1939.8961"/><rect fill="#FFFFFF" height="459.8478" style="stroke:#000000;stroke-width:1.0;" width="10" x="492.5" y="460.9921"/><line style="stroke:#000000;stroke-width:1.0;" x1="820.5" x2="820.5" y1="113.3999" y2="1939.8961"/><rect fill="#FFFFFF" height="1048.8803" style="stroke:#000000;stroke-width:1.0;" width="10" x="815.5" y="827.1919"/><line style="stroke:#000000;stroke-width:1.0;" x1="1140.5" x2="1140.5" y1="113.3999" y2="1939.8961"/><rect fill="#FFFFFF" height="266.872" style="stroke:#000000;stroke-width:1.0;" width="10" x="1135.5" y="1380.0801"/><rect fill="#E0FFFF" height="54.5438" rx="2.5" ry="2.5" style="stroke:#000000;stroke-width:1.0;" width="106" x="140.5" y="57.8561"/><text fill="#000000" font-family="Verdana" font-size="14" lengthAdjust="spacing" textLength="42" x="172.5" y="81.096">&#20027;&#32447;&#31243;</text><text fill="#000000" font-family="Verdana" font-size="14" lengthAdjust="spacing" textLength="92" x="147.5" y="101.3679">(Main Thread)</text><rect fill="#FFFFE0" height="54.5438" rx="2.5" ry="2.5" style="stroke:#000000;stroke-width:1.0;" width="162" x="416.5" y="57.8561"/><text fill="#000000" font-family="Verdana" font-size="14" lengthAdjust="spacing" textLength="84" x="455.5" y="81.096">&#24515;&#36339;&#26816;&#27979;&#32447;&#31243;</text><text fill="#000000" font-family="Verdana" font-size="14" lengthAdjust="spacing" textLength="148" x="423.5" y="101.3679">(Health Check Thread)</text><rect fill="#ADD8E6" height="54.5438" rx="2.5" ry="2.5" style="stroke:#000000;stroke-width:1.0;" width="144" x="748.5" y="57.8561"/><text fill="#000000" font-family="Verdana" font-size="14" lengthAdjust="spacing" textLength="84" x="778.5" y="81.096">&#37325;&#36830;&#22788;&#29702;&#32447;&#31243;</text><text fill="#000000" font-family="Verdana" font-size="14" lengthAdjust="spacing" textLength="130" x="755.5" y="101.3679">(Reconnect Thread)</text><rect fill="#FFB6C1" height="54.5438" rx="2.5" ry="2.5" style="stroke:#000000;stroke-width:1.0;" width="103" x="1089" y="57.8561"/><text fill="#000000" font-family="Verdana" font-size="14" lengthAdjust="spacing" textLength="84" x="1098.5" y="81.096">&#22238;&#25910;&#31561;&#24453;&#32447;&#31243;</text><text fill="#000000" font-family="Verdana" font-size="14" lengthAdjust="spacing" textLength="89" x="1096" y="101.3679">(Wait Thread)</text><rect fill="#E0FFFF" height="54.5438" rx="2.5" ry="2.5" style="stroke:#000000;stroke-width:1.0;" width="106" x="140.5" y="1939.8961"/><text fill="#000000" font-family="Verdana" font-size="14" lengthAdjust="spacing" textLength="42" x="172.5" y="1963.1361">&#20027;&#32447;&#31243;</text><text fill="#000000" font-family="Verdana" font-size="14" lengthAdjust="spacing" textLength="92" x="147.5" y="1983.408">(Main Thread)</text><rect fill="#FFFFE0" height="54.5438" rx="2.5" ry="2.5" style="stroke:#000000;stroke-width:1.0;" width="162" x="416.5" y="1939.8961"/><text fill="#000000" font-family="Verdana" font-size="14" lengthAdjust="spacing" textLength="84" x="455.5" y="1963.1361">&#24515;&#36339;&#26816;&#27979;&#32447;&#31243;</text><text fill="#000000" font-family="Verdana" font-size="14" lengthAdjust="spacing" textLength="148" x="423.5" y="1983.408">(Health Check Thread)</text><rect fill="#ADD8E6" height="54.5438" rx="2.5" ry="2.5" style="stroke:#000000;stroke-width:1.0;" width="144" x="748.5" y="1939.8961"/><text fill="#000000" font-family="Verdana" font-size="14" lengthAdjust="spacing" textLength="84" x="778.5" y="1963.1361">&#37325;&#36830;&#22788;&#29702;&#32447;&#31243;</text><text fill="#000000" font-family="Verdana" font-size="14" lengthAdjust="spacing" textLength="130" x="755.5" y="1983.408">(Reconnect Thread)</text><rect fill="#FFB6C1" height="54.5438" rx="2.5" ry="2.5" style="stroke:#000000;stroke-width:1.0;" width="103" x="1089" y="1939.8961"/><text fill="#000000" font-family="Verdana" font-size="14" lengthAdjust="spacing" textLength="84" x="1098.5" y="1963.1361">&#22238;&#25910;&#31561;&#24453;&#32447;&#31243;</text><text fill="#000000" font-family="Verdana" font-size="14" lengthAdjust="spacing" textLength="89" x="1096" y="1983.408">(Wait Thread)</text><path d="M10,126.3999 L10,154.3999 L1324,154.3999 L1324,136.3999 L1314,126.3999 L10,126.3999 " fill="#FFFFFF" style="stroke:#000000;stroke-width:1.0;"/><path d="M1314,126.3999 L1314,136.3999 L1324,136.3999 L1314,126.3999 " fill="#FFFFFF" style="stroke:#000000;stroke-width:1.0;"/><text fill="#000000" font-family="Verdana" font-size="13" font-weight="bold" lengthAdjust="spacing" textLength="1293" x="16" y="146.4799">&#26412;&#22270;&#29992;&#20110;&#20998;&#26512;&#24403;&#21069;&#37319;&#38598;&#26550;&#26500;&#20013;&#26029;&#32447;&#37325;&#36830;&#21151;&#33021;&#30456;&#20851;&#30340;&#32447;&#31243;&#20132;&#20114;&#20851;&#31995;&#65292;&#22270;&#20013;&#27599;&#20010;participant&#23545;&#24212;&#19968;&#20010;&#29420;&#31435;&#32447;&#31243;&#12290;&#20026;&#31616;&#21270;&#34920;&#36798;&#65292;&#22270;&#20013;&#19981;&#21306;&#20998;&#20989;&#25968;&#35843;&#29992;&#30340;&#23884;&#22871;&#19982;&#20018;&#34892;&#32467;&#26500;&#65292;&#26088;&#22312;&#21576;&#29616;&#32447;&#31243;&#38388;&#30340;&#26680;&#24515;&#36923;&#36753;&#27969;&#31243;&#65292;&#20855;&#20307;&#35821;&#20041;&#35831;&#32467;&#21512;&#19978;&#19979;&#25991;&#29702;&#35299;&#12290;</text><rect fill="#FFFFFF" height="3" style="stroke:#FFFFFF;stroke-width:1.0;" width="1351.5" x="5" y="182.636"/><line style="stroke:#000000;stroke-width:0.5;" x1="5" x2="1356.5" y1="182.636" y2="182.636"/><line style="stroke:#000000;stroke-width:0.5;" x1="5" x2="1356.5" y1="185.636" y2="185.636"/><rect fill="#FFFFFF" height="26.824" style="stroke:#000000;stroke-width:1.0;" width="110" x="625.75" y="170.2239"/><text fill="#000000" font-family="Verdana" font-size="13" font-weight="bold" lengthAdjust="spacing" textLength="93" x="631.75" y="189.304">1. &#26029;&#32447;&#26816;&#27979;&#38454;&#27573;</text><line style="stroke:#000000;stroke-width:1.0;" x1="198.5" x2="240.5" y1="231.872" y2="231.872"/><line style="stroke:#000000;stroke-width:1.0;" x1="240.5" x2="240.5" y1="231.872" y2="244.872"/><line style="stroke:#000000;stroke-width:1.0;" x1="199.5" x2="240.5" y1="244.872" y2="244.872"/><polygon fill="#000000" points="209.5,240.872,199.5,244.872,209.5,248.872,205.5,244.872" style="stroke:#000000;stroke-width:1.0;"/><text fill="#000000" font-family="Verdana" font-size="13" lengthAdjust="spacing" textLength="169" x="205.5" y="226.128">&#24212;&#29992;&#31243;&#24207;&#21551;&#21160;&#27969;&#31243;&#65288;&#20855;&#20307;&#30053;&#65289;</text><line style="stroke:#000000;stroke-width:1.0;" x1="198.5" x2="240.5" y1="277.696" y2="277.696"/><line style="stroke:#000000;stroke-width:1.0;" x1="240.5" x2="240.5" y1="277.696" y2="290.696"/><line style="stroke:#000000;stroke-width:1.0;" x1="199.5" x2="240.5" y1="290.696" y2="290.696"/><polygon fill="#000000" points="209.5,286.696,199.5,290.696,209.5,294.696,205.5,290.696" style="stroke:#000000;stroke-width:1.0;"/><text fill="#000000" font-family="Verdana" font-size="13" lengthAdjust="spacing" textLength="82" x="205.5" y="271.952">OpenDevice()</text><line style="stroke:#000000;stroke-width:1.0;" x1="198.5" x2="240.5" y1="323.52" y2="323.52"/><line style="stroke:#000000;stroke-width:1.0;" x1="240.5" x2="240.5" y1="323.52" y2="336.52"/><line style="stroke:#000000;stroke-width:1.0;" x1="199.5" x2="240.5" y1="336.52" y2="336.52"/><polygon fill="#000000" points="209.5,332.52,199.5,336.52,209.5,340.52,205.5,336.52" style="stroke:#000000;stroke-width:1.0;"/><text fill="#000000" font-family="Verdana" font-size="13" lengthAdjust="spacing" textLength="205" x="205.5" y="317.776">NotifyEventHandeler(OnOpened);</text><line style="stroke:#000000;stroke-width:1.0;" x1="198.5" x2="240.5" y1="369.344" y2="369.344"/><line style="stroke:#000000;stroke-width:1.0;" x1="240.5" x2="240.5" y1="369.344" y2="382.344"/><line style="stroke:#000000;stroke-width:1.0;" x1="199.5" x2="240.5" y1="382.344" y2="382.344"/><polygon fill="#000000" points="209.5,378.344,199.5,382.344,209.5,386.344,205.5,382.344" style="stroke:#000000;stroke-width:1.0;"/><text fill="#000000" font-family="Verdana" font-size="13" lengthAdjust="spacing" textLength="195" x="205.5" y="363.6">ReconnectHandler::OnOpened()</text><line style="stroke:#000000;stroke-width:1.0;" x1="198.5" x2="240.5" y1="415.168" y2="415.168"/><line style="stroke:#000000;stroke-width:1.0;" x1="240.5" x2="240.5" y1="415.168" y2="428.168"/><line style="stroke:#000000;stroke-width:1.0;" x1="199.5" x2="240.5" y1="428.168" y2="428.168"/><polygon fill="#000000" points="209.5,424.168,199.5,428.168,209.5,432.168,205.5,428.168" style="stroke:#000000;stroke-width:1.0;"/><text fill="#000000" font-family="Verdana" font-size="13" lengthAdjust="spacing" textLength="158" x="205.5" y="409.424">StartHealthCheckThread()</text><polygon fill="#000000" points="480.5,456.9921,490.5,460.9921,480.5,464.9921,484.5,460.9921" style="stroke:#000000;stroke-width:1.0;"/><line style="stroke:#000000;stroke-width:1.0;" x1="198.5" x2="486.5" y1="460.9921" y2="460.9921"/><text fill="#000000" font-family="Verdana" font-size="13" lengthAdjust="spacing" textLength="149" x="205.5" y="455.2481">&#21019;&#24314;&#24515;&#36339;&#26816;&#27979;&#32447;&#31243; detach</text><line style="stroke:#000000;stroke-width:1.0;" x1="198.5" x2="240.5" y1="493.8161" y2="493.8161"/><line style="stroke:#000000;stroke-width:1.0;" x1="240.5" x2="240.5" y1="493.8161" y2="506.8161"/><line style="stroke:#000000;stroke-width:1.0;" x1="199.5" x2="240.5" y1="506.8161" y2="506.8161"/><polygon fill="#000000" points="209.5,502.8161,199.5,506.8161,209.5,510.8161,205.5,506.8161" style="stroke:#000000;stroke-width:1.0;"/><text fill="#000000" font-family="Verdana" font-size="13" lengthAdjust="spacing" textLength="78" x="205.5" y="488.0721">&#32487;&#32493;&#21518;&#32493;&#27969;&#31243;</text><path d="M462.5,518.8161 L524.5,518.8161 L524.5,529.6401 L514.5,539.6401 L462.5,539.6401 L462.5,518.8161 " fill="#FFFFFF" style="stroke:#000000;stroke-width:1.0;"/><rect fill="none" height="316.3758" style="stroke:#000000;stroke-width:1.0;" width="551" x="462.5" y="518.8161"/><text fill="#000000" font-family="Verdana" font-size="13" font-weight="bold" lengthAdjust="spacing" textLength="17" x="477.5" y="534.8961">alt</text><text fill="#000000" font-family="Verdana" font-size="11" font-weight="bold" lengthAdjust="spacing" textLength="24" x="539.5" y="533.576">[try]</text><line style="stroke:#000000;stroke-width:1.0;stroke-dasharray:2.0,2.0;" x1="462.5" x2="1013.5" y1="733.6159" y2="733.6159"/><text fill="#000000" font-family="Verdana" font-size="11" font-weight="bold" lengthAdjust="spacing" textLength="64" x="467.5" y="748.3758">[catch &#24322;&#24120;]</text><path d="M481.5,554.568 L554.5,554.568 L554.5,565.392 L544.5,575.392 L481.5,575.392 L481.5,554.568 " fill="#FFFFFF" style="stroke:#000000;stroke-width:1.0;"/><rect fill="none" height="154.048" style="stroke:#000000;stroke-width:1.0;" width="507" x="481.5" y="554.568"/><text fill="#000000" font-family="Verdana" font-size="13" font-weight="bold" lengthAdjust="spacing" textLength="28" x="496.5" y="570.648">loop</text><text fill="#000000" font-family="Verdana" font-size="11" font-weight="bold" lengthAdjust="spacing" textLength="230" x="569.5" y="569.3279">[while(is_health_check_thread_running_)]</text><line style="stroke:#000000;stroke-width:1.0;" x1="502.5" x2="544.5" y1="611.1439" y2="611.1439"/><line style="stroke:#000000;stroke-width:1.0;" x1="544.5" x2="544.5" y1="611.1439" y2="624.1439"/><line style="stroke:#000000;stroke-width:1.0;" x1="503.5" x2="544.5" y1="624.1439" y2="624.1439"/><polygon fill="#000000" points="513.5,620.1439,503.5,624.1439,513.5,628.1439,509.5,624.1439" style="stroke:#000000;stroke-width:1.0;"/><text fill="#000000" font-family="Verdana" font-size="13" lengthAdjust="spacing" textLength="100" x="509.5" y="605.3999">SendHeartBeat()</text><path d="M621.5,591.3199 L621.5,657.3199 L967.5,657.3199 L967.5,601.3199 L957.5,591.3199 L621.5,591.3199 " fill="#FFFFFF" style="stroke:#000000;stroke-width:1.0;"/><path d="M957.5,591.3199 L957.5,601.3199 L967.5,601.3199 L957.5,591.3199 " fill="#FFFFFF" style="stroke:#000000;stroke-width:1.0;"/><text fill="#000000" font-family="Verdana" font-size="13" lengthAdjust="spacing" textLength="325" x="627.5" y="611.3999">&#35775;&#38382;&#30456;&#26426;&#23492;&#23384;&#22120;&#20197;&#30830;&#35748;&#36830;&#25509;&#29366;&#24577;&#65292;&#20855;&#20307;&#25805;&#20316;&#19982;&#21697;&#29260;&#30456;&#20851;&#65292;</text><text fill="#000000" font-family="Verdana" font-size="13" lengthAdjust="spacing" textLength="286" x="627.5" y="630.2239">&#33509;&#35775;&#38382;&#23492;&#23384;&#22120;&#22833;&#36133;&#65292;&#24847;&#21619;&#30528;&#30456;&#26426;&#24050;&#29289;&#29702;&#26029;&#24320;&#36830;&#25509;&#65292;</text><text fill="#000000" font-family="Verdana" font-size="13" lengthAdjust="spacing" textLength="78" x="627.5" y="649.0479">&#20989;&#25968;&#25243;&#20986;&#24322;&#24120;</text><line style="stroke:#000000;stroke-width:1.0;" x1="502.5" x2="544.5" y1="687.6159" y2="687.6159"/><line style="stroke:#000000;stroke-width:1.0;" x1="544.5" x2="544.5" y1="687.6159" y2="700.6159"/><line style="stroke:#000000;stroke-width:1.0;" x1="503.5" x2="544.5" y1="700.6159" y2="700.6159"/><polygon fill="#000000" points="513.5,696.6159,503.5,700.6159,513.5,704.6159,509.5,700.6159" style="stroke:#000000;stroke-width:1.0;"/><text fill="#000000" font-family="Verdana" font-size="13" lengthAdjust="spacing" textLength="60" x="509.5" y="681.8719">sleep(1&#31186;)</text><line style="stroke:#000000;stroke-width:1.0;" x1="502.5" x2="544.5" y1="781.3678" y2="781.3678"/><line style="stroke:#000000;stroke-width:1.0;" x1="544.5" x2="544.5" y1="781.3678" y2="794.3678"/><line style="stroke:#000000;stroke-width:1.0;" x1="503.5" x2="544.5" y1="794.3678" y2="794.3678"/><polygon fill="#000000" points="513.5,790.3678,503.5,794.3678,513.5,798.3678,509.5,794.3678" style="stroke:#000000;stroke-width:1.0;"/><text fill="#000000" font-family="Verdana" font-size="13" lengthAdjust="spacing" textLength="52" x="509.5" y="775.6238">&#29366;&#24577;&#26356;&#26032;</text><polygon fill="#000000" points="803.5,823.1919,813.5,827.1919,803.5,831.1919,807.5,827.1919" style="stroke:#000000;stroke-width:1.0;"/><line style="stroke:#000000;stroke-width:1.0;" x1="502.5" x2="809.5" y1="827.1919" y2="827.1919"/><text fill="#000000" font-family="Verdana" font-size="13" lengthAdjust="spacing" textLength="149" x="509.5" y="821.4479">&#21019;&#24314;&#37325;&#36830;&#22788;&#29702;&#32447;&#31243; detach</text><rect fill="#FFFFFF" height="3" style="stroke:#FFFFFF;stroke-width:1.0;" width="1351.5" x="5" y="871.6039"/><line style="stroke:#000000;stroke-width:0.5;" x1="5" x2="1356.5" y1="871.6039" y2="871.6039"/><line style="stroke:#000000;stroke-width:0.5;" x1="5" x2="1356.5" y1="874.6039" y2="874.6039"/><rect fill="#FFFFFF" height="26.824" style="stroke:#000000;stroke-width:1.0;" width="110" x="625.75" y="859.1919"/><text fill="#000000" font-family="Verdana" font-size="13" font-weight="bold" lengthAdjust="spacing" textLength="93" x="631.75" y="878.2719">2. &#24322;&#27493;&#36890;&#30693;&#38454;&#27573;</text><line style="stroke:#000000;stroke-width:1.0;" x1="502.5" x2="544.5" y1="920.8399" y2="920.8399"/><line style="stroke:#000000;stroke-width:1.0;" x1="544.5" x2="544.5" y1="920.8399" y2="933.8399"/><line style="stroke:#000000;stroke-width:1.0;" x1="497.5" x2="544.5" y1="933.8399" y2="933.8399"/><polygon fill="#000000" points="507.5,929.8399,497.5,933.8399,507.5,937.8399,503.5,933.8399" style="stroke:#000000;stroke-width:1.0;"/><text fill="#000000" font-family="Verdana" font-size="13" lengthAdjust="spacing" textLength="78" x="509.5" y="915.0959">&#24515;&#36339;&#32447;&#31243;&#32467;&#26463;</text><line style="stroke:#000000;stroke-width:1.0;" x1="825.5" x2="867.5" y1="966.6639" y2="966.6639"/><line style="stroke:#000000;stroke-width:1.0;" x1="867.5" x2="867.5" y1="966.6639" y2="979.6639"/><line style="stroke:#000000;stroke-width:1.0;" x1="826.5" x2="867.5" y1="979.6639" y2="979.6639"/><polygon fill="#000000" points="836.5,975.6639,826.5,979.6639,836.5,983.6639,832.5,979.6639" style="stroke:#000000;stroke-width:1.0;"/><text fill="#000000" font-family="Verdana" font-size="13" lengthAdjust="spacing" textLength="301" x="832.5" y="960.9199">NotifyEventHandeler(OnCameraDeviceRemoved);</text><line style="stroke:#000000;stroke-width:1.0;" x1="825.5" x2="867.5" y1="1012.4879" y2="1012.4879"/><line style="stroke:#000000;stroke-width:1.0;" x1="867.5" x2="867.5" y1="1012.4879" y2="1025.4879"/><line style="stroke:#000000;stroke-width:1.0;" x1="826.5" x2="867.5" y1="1025.4879" y2="1025.4879"/><polygon fill="#000000" points="836.5,1021.4879,826.5,1025.4879,836.5,1029.4879,832.5,1025.4879" style="stroke:#000000;stroke-width:1.0;"/><text fill="#000000" font-family="Verdana" font-size="13" lengthAdjust="spacing" textLength="291" x="832.5" y="1006.7439">ReconnectHandler::OnCameraDeviceRemoved()</text><rect fill="#FFFFFF" height="3" style="stroke:#FFFFFF;stroke-width:1.0;" width="1351.5" x="5" y="1055.8999"/><line style="stroke:#000000;stroke-width:0.5;" x1="5" x2="1356.5" y1="1055.8999" y2="1055.8999"/><line style="stroke:#000000;stroke-width:0.5;" x1="5" x2="1356.5" y1="1058.8999" y2="1058.8999"/><rect fill="#FFFFFF" height="26.824" style="stroke:#000000;stroke-width:1.0;" width="110" x="625.75" y="1043.4879"/><text fill="#000000" font-family="Verdana" font-size="13" font-weight="bold" lengthAdjust="spacing" textLength="93" x="631.75" y="1062.5679">3. &#35774;&#22791;&#20851;&#38381;&#38454;&#27573;</text><line style="stroke:#000000;stroke-width:1.0;" x1="825.5" x2="867.5" y1="1105.136" y2="1105.136"/><line style="stroke:#000000;stroke-width:1.0;" x1="867.5" x2="867.5" y1="1105.136" y2="1118.136"/><line style="stroke:#000000;stroke-width:1.0;" x1="826.5" x2="867.5" y1="1118.136" y2="1118.136"/><polygon fill="#000000" points="836.5,1114.136,826.5,1118.136,836.5,1122.136,832.5,1118.136" style="stroke:#000000;stroke-width:1.0;"/><text fill="#000000" font-family="Verdana" font-size="13" lengthAdjust="spacing" textLength="93" x="832.5" y="1099.392">StopGrabbing()</text><line style="stroke:#000000;stroke-width:1.0;" x1="825.5" x2="867.5" y1="1150.96" y2="1150.96"/><line style="stroke:#000000;stroke-width:1.0;" x1="867.5" x2="867.5" y1="1150.96" y2="1163.96"/><line style="stroke:#000000;stroke-width:1.0;" x1="826.5" x2="867.5" y1="1163.96" y2="1163.96"/><polygon fill="#000000" points="836.5,1159.96,826.5,1163.96,836.5,1167.96,832.5,1163.96" style="stroke:#000000;stroke-width:1.0;"/><text fill="#000000" font-family="Verdana" font-size="13" lengthAdjust="spacing" textLength="82" x="832.5" y="1145.216">CloseDevice()</text><line style="stroke:#000000;stroke-width:1.0;" x1="825.5" x2="867.5" y1="1196.784" y2="1196.784"/><line style="stroke:#000000;stroke-width:1.0;" x1="867.5" x2="867.5" y1="1196.784" y2="1209.784"/><line style="stroke:#000000;stroke-width:1.0;" x1="826.5" x2="867.5" y1="1209.784" y2="1209.784"/><polygon fill="#000000" points="836.5,1205.784,826.5,1209.784,836.5,1213.784,832.5,1209.784" style="stroke:#000000;stroke-width:1.0;"/><text fill="#000000" font-family="Verdana" font-size="13" lengthAdjust="spacing" textLength="186" x="832.5" y="1191.04">NotifyEventHandeler(OnClose)</text><line style="stroke:#000000;stroke-width:1.0;" x1="825.5" x2="867.5" y1="1242.608" y2="1242.608"/><line style="stroke:#000000;stroke-width:1.0;" x1="867.5" x2="867.5" y1="1242.608" y2="1255.608"/><line style="stroke:#000000;stroke-width:1.0;" x1="826.5" x2="867.5" y1="1255.608" y2="1255.608"/><polygon fill="#000000" points="836.5,1251.608,826.5,1255.608,836.5,1259.608,832.5,1255.608" style="stroke:#000000;stroke-width:1.0;"/><text fill="#000000" font-family="Verdana" font-size="13" lengthAdjust="spacing" textLength="180" x="832.5" y="1236.864">ReconnectHandler::OnClose()</text><line style="stroke:#000000;stroke-width:1.0;" x1="825.5" x2="867.5" y1="1288.432" y2="1288.432"/><line style="stroke:#000000;stroke-width:1.0;" x1="867.5" x2="867.5" y1="1288.432" y2="1301.432"/><line style="stroke:#000000;stroke-width:1.0;" x1="826.5" x2="867.5" y1="1301.432" y2="1301.432"/><polygon fill="#000000" points="836.5,1297.432,826.5,1301.432,836.5,1305.432,832.5,1301.432" style="stroke:#000000;stroke-width:1.0;"/><text fill="#000000" font-family="Verdana" font-size="13" lengthAdjust="spacing" textLength="157" x="832.5" y="1282.688">StopHealthCheckThread()</text><line style="stroke:#000000;stroke-width:1.0;" x1="825.5" x2="867.5" y1="1334.256" y2="1334.256"/><line style="stroke:#000000;stroke-width:1.0;" x1="867.5" x2="867.5" y1="1334.256" y2="1347.256"/><line style="stroke:#000000;stroke-width:1.0;" x1="826.5" x2="867.5" y1="1347.256" y2="1347.256"/><polygon fill="#000000" points="836.5,1343.256,826.5,1347.256,836.5,1351.256,832.5,1347.256" style="stroke:#000000;stroke-width:1.0;"/><text fill="#000000" font-family="Verdana" font-size="13" lengthAdjust="spacing" textLength="52" x="832.5" y="1328.512">&#29366;&#24577;&#26356;&#26032;</text><polygon fill="#000000" points="1123.5,1376.0801,1133.5,1380.0801,1123.5,1384.0801,1127.5,1380.0801" style="stroke:#000000;stroke-width:1.0;"/><line style="stroke:#000000;stroke-width:1.0;" x1="825.5" x2="1129.5" y1="1380.0801" y2="1380.0801"/><text fill="#000000" font-family="Verdana" font-size="13" lengthAdjust="spacing" textLength="149" x="832.5" y="1374.3361">&#21019;&#24314;&#22238;&#25910;&#31561;&#24453;&#32447;&#31243; detach</text><rect fill="#FFFFFF" height="3" style="stroke:#FFFFFF;stroke-width:1.0;" width="1351.5" x="5" y="1410.4921"/><line style="stroke:#000000;stroke-width:0.5;" x1="5" x2="1356.5" y1="1410.4921" y2="1410.4921"/><line style="stroke:#000000;stroke-width:0.5;" x1="5" x2="1356.5" y1="1413.4921" y2="1413.4921"/><rect fill="#FFFFFF" height="26.824" style="stroke:#000000;stroke-width:1.0;" width="110" x="625.75" y="1398.0801"/><text fill="#000000" font-family="Verdana" font-size="13" font-weight="bold" lengthAdjust="spacing" textLength="93" x="631.75" y="1417.1601">4. &#35774;&#22791;&#37325;&#36830;&#38454;&#27573;</text><line style="stroke:#000000;stroke-width:1.0;" x1="1145.5" x2="1187.5" y1="1459.7281" y2="1459.7281"/><line style="stroke:#000000;stroke-width:1.0;" x1="1187.5" x2="1187.5" y1="1459.7281" y2="1472.7281"/><line style="stroke:#000000;stroke-width:1.0;" x1="1146.5" x2="1187.5" y1="1472.7281" y2="1472.7281"/><polygon fill="#000000" points="1156.5,1468.7281,1146.5,1472.7281,1156.5,1476.7281,1152.5,1472.7281" style="stroke:#000000;stroke-width:1.0;"/><text fill="#000000" font-family="Verdana" font-size="13" lengthAdjust="spacing" textLength="168" x="1152.5" y="1453.9841">lock(health_check_mutex_)</text><line style="stroke:#000000;stroke-width:1.0;" x1="825.5" x2="867.5" y1="1459.7281" y2="1459.7281"/><line style="stroke:#000000;stroke-width:1.0;" x1="867.5" x2="867.5" y1="1459.7281" y2="1472.7281"/><line style="stroke:#000000;stroke-width:1.0;" x1="826.5" x2="867.5" y1="1472.7281" y2="1472.7281"/><polygon fill="#000000" points="836.5,1468.7281,826.5,1472.7281,836.5,1476.7281,832.5,1472.7281" style="stroke:#000000;stroke-width:1.0;"/><text fill="#000000" font-family="Verdana" font-size="13" lengthAdjust="spacing" textLength="143" x="832.5" y="1453.9841">&#23581;&#35797;&#37325;&#36830;&#65288;&#37325;&#36830;&#32454;&#33410;&#30053;&#65289;</text><path d="M963.5,1484.7281 L1025.5,1484.7281 L1025.5,1495.5521 L1015.5,1505.5521 L963.5,1505.5521 L963.5,1484.7281 " fill="#FFFFFF" style="stroke:#000000;stroke-width:1.0;"/><rect fill="none" height="77.5759" style="stroke:#000000;stroke-width:1.0;" width="384" x="963.5" y="1484.7281"/><text fill="#000000" font-family="Verdana" font-size="13" font-weight="bold" lengthAdjust="spacing" textLength="17" x="978.5" y="1500.8081">alt</text><text fill="#000000" font-family="Verdana" font-size="11" font-weight="bold" lengthAdjust="spacing" textLength="95" x="1040.5" y="1499.488">[&#24515;&#36339;&#32447;&#31243;joinable]</text><line style="stroke:#000000;stroke-width:1.0;" x1="1145.5" x2="1187.5" y1="1541.304" y2="1541.304"/><line style="stroke:#000000;stroke-width:1.0;" x1="1187.5" x2="1187.5" y1="1541.304" y2="1554.304"/><line style="stroke:#000000;stroke-width:1.0;" x1="1146.5" x2="1187.5" y1="1554.304" y2="1554.304"/><polygon fill="#000000" points="1156.5,1550.304,1146.5,1554.304,1156.5,1558.304,1152.5,1554.304" style="stroke:#000000;stroke-width:1.0;"/><text fill="#000000" font-family="Verdana" font-size="13" lengthAdjust="spacing" textLength="172" x="1152.5" y="1535.56">health_check_thread_.join()</text><path d="M984.5,1521.48 L984.5,1549.48 L1135.5,1549.48 L1135.5,1531.48 L1125.5,1521.48 L984.5,1521.48 " fill="#FFFFFF" style="stroke:#000000;stroke-width:1.0;"/><path d="M1125.5,1521.48 L1125.5,1531.48 L1135.5,1531.48 L1125.5,1521.48 " fill="#FFFFFF" style="stroke:#000000;stroke-width:1.0;"/><text fill="#000000" font-family="Verdana" font-size="13" lengthAdjust="spacing" textLength="130" x="990.5" y="1541.56">&#31561;&#24453;&#24515;&#36339;&#32447;&#31243;&#23436;&#20840;&#32467;&#26463;</text><line style="stroke:#000000;stroke-width:1.0;" x1="1145.5" x2="1187.5" y1="1601.128" y2="1601.128"/><line style="stroke:#000000;stroke-width:1.0;" x1="1187.5" x2="1187.5" y1="1601.128" y2="1614.128"/><line style="stroke:#000000;stroke-width:1.0;" x1="1146.5" x2="1187.5" y1="1614.128" y2="1614.128"/><polygon fill="#000000" points="1156.5,1610.128,1146.5,1614.128,1156.5,1618.128,1152.5,1614.128" style="stroke:#000000;stroke-width:1.0;"/><text fill="#000000" font-family="Verdana" font-size="13" lengthAdjust="spacing" textLength="184" x="1152.5" y="1595.384">unlock(health_check_mutex_)</text><line style="stroke:#000000;stroke-width:1.0;" x1="1145.5" x2="1187.5" y1="1646.952" y2="1646.952"/><line style="stroke:#000000;stroke-width:1.0;" x1="1187.5" x2="1187.5" y1="1646.952" y2="1659.952"/><line style="stroke:#000000;stroke-width:1.0;" x1="1140.5" x2="1187.5" y1="1659.952" y2="1659.952"/><polygon fill="#000000" points="1150.5,1655.952,1140.5,1659.952,1150.5,1663.952,1146.5,1659.952" style="stroke:#000000;stroke-width:1.0;"/><text fill="#000000" font-family="Verdana" font-size="13" lengthAdjust="spacing" textLength="104" x="1152.5" y="1641.208">&#22238;&#25910;&#31561;&#24453;&#32447;&#31243;&#32467;&#26463;</text><line style="stroke:#000000;stroke-width:1.0;" x1="825.5" x2="867.5" y1="1692.7761" y2="1692.7761"/><line style="stroke:#000000;stroke-width:1.0;" x1="867.5" x2="867.5" y1="1692.7761" y2="1705.7761"/><line style="stroke:#000000;stroke-width:1.0;" x1="826.5" x2="867.5" y1="1705.7761" y2="1705.7761"/><polygon fill="#000000" points="836.5,1701.7761,826.5,1705.7761,836.5,1709.7761,832.5,1705.7761" style="stroke:#000000;stroke-width:1.0;"/><text fill="#000000" font-family="Verdana" font-size="13" lengthAdjust="spacing" textLength="52" x="832.5" y="1687.032">&#37325;&#36830;&#25104;&#21151;</text><line style="stroke:#000000;stroke-width:1.0;" x1="825.5" x2="867.5" y1="1738.6001" y2="1738.6001"/><line style="stroke:#000000;stroke-width:1.0;" x1="867.5" x2="867.5" y1="1738.6001" y2="1751.6001"/><line style="stroke:#000000;stroke-width:1.0;" x1="826.5" x2="867.5" y1="1751.6001" y2="1751.6001"/><polygon fill="#000000" points="836.5,1747.6001,826.5,1751.6001,836.5,1755.6001,832.5,1751.6001" style="stroke:#000000;stroke-width:1.0;"/><text fill="#000000" font-family="Verdana" font-size="13" lengthAdjust="spacing" textLength="82" x="832.5" y="1732.8561">OpenDevice()</text><line style="stroke:#000000;stroke-width:1.0;" x1="825.5" x2="867.5" y1="1784.4241" y2="1784.4241"/><line style="stroke:#000000;stroke-width:1.0;" x1="867.5" x2="867.5" y1="1784.4241" y2="1797.4241"/><line style="stroke:#000000;stroke-width:1.0;" x1="826.5" x2="867.5" y1="1797.4241" y2="1797.4241"/><polygon fill="#000000" points="836.5,1793.4241,826.5,1797.4241,836.5,1801.4241,832.5,1797.4241" style="stroke:#000000;stroke-width:1.0;"/><text fill="#000000" font-family="Verdana" font-size="13" lengthAdjust="spacing" textLength="74" x="832.5" y="1778.6801">OnOpened()</text><line style="stroke:#000000;stroke-width:1.0;" x1="825.5" x2="867.5" y1="1830.2481" y2="1830.2481"/><line style="stroke:#000000;stroke-width:1.0;" x1="867.5" x2="867.5" y1="1830.2481" y2="1843.2481"/><line style="stroke:#000000;stroke-width:1.0;" x1="826.5" x2="867.5" y1="1843.2481" y2="1843.2481"/><polygon fill="#000000" points="836.5,1839.2481,826.5,1843.2481,836.5,1847.2481,832.5,1843.2481" style="stroke:#000000;stroke-width:1.0;"/><text fill="#000000" font-family="Verdana" font-size="13" lengthAdjust="spacing" textLength="158" x="832.5" y="1824.5041">StartHealthCheckThread()</text><polygon fill="#000000" points="1344.5,1872.0721,1354.5,1876.0721,1344.5,1880.0721,1348.5,1876.0721" style="stroke:#000000;stroke-width:1.0;"/><line style="stroke:#000000;stroke-width:1.0;" x1="825.5" x2="1350.5" y1="1876.0721" y2="1876.0721"/><text fill="#000000" font-family="Verdana" font-size="13" lengthAdjust="spacing" textLength="162" x="832.5" y="1870.3281">&#21019;&#24314;&#26032;&#24515;&#36339;&#26816;&#27979;&#32447;&#31243; detach</text><line style="stroke:#000000;stroke-width:1.0;" x1="198.5" x2="240.5" y1="1908.8961" y2="1908.8961"/><line style="stroke:#000000;stroke-width:1.0;" x1="240.5" x2="240.5" y1="1908.8961" y2="1921.8961"/><line style="stroke:#000000;stroke-width:1.0;" x1="199.5" x2="240.5" y1="1921.8961" y2="1921.8961"/><polygon fill="#000000" points="209.5,1917.8961,199.5,1921.8961,209.5,1925.8961,205.5,1921.8961" style="stroke:#000000;stroke-width:1.0;"/><text fill="#000000" font-family="Verdana" font-size="13" lengthAdjust="spacing" textLength="104" x="205.5" y="1903.1521">&#24212;&#29992;&#31243;&#24207;&#32487;&#32493;&#36816;&#34892;</text><!--SRC=[fLPRRnj557xVNp4j4d8Y6b7W0GM5XmP47u1M3H92AeeszZHUijwrx4rAU7AkliH9dERYKkT2r5WnKDkXQPAjdTW_XftPzLF_0cSylkpwfWNyODcp-ttdp3dV-MPkQNuSm2WeYv8Yt0g6nEc0Y3Ii_eAqq2mMXF2Cf0J5a1X0yAr9NYaeAjf3qUUJb6dqwOU2e4cQZ17TovkbQYswRbKFhMhKpAsXEmXMu8UXRv3e3Tqze_5JwpX9qvUaj4ao5K4GR9Jejg6NEU2nula6ia7V-KDOz0tTHc8OiGN-7xttjJJjryRdHSM99zKbw-gSlepGYxKMqNqiofeVZVknTyP1o1_KrnsyFs1PLfyYvEJc6oCdosPgjSNz27jLHS5UpK7SMdNGtfEXcCvqCuTqvzBCnqbbfKNvlIWvsTY2W-YXfCm8Wg9g6AbpE6Ghp0UsbuNXORh_2efixkICqWQ9hTB35BdP9l7rMZHQoy3VItguREXvU-D8uiXQkZ4pEbavDryiDzfNEZ5ApzZAUVdTTH8u6QguQUX_sFP3Ycz9QSVG8x1ihhqo_soquE_8eg6Np4A49FUiuvnLgRGu37sT94kG6bU7TRO4oK9OSf4asJIenj1VWrxCyZPa2YYQpf7z7DcAcHjddBoMVWFlqzzqQ7qjKhOgM_HY0TPPY9KhusRRAkQDjt6hU0Ka91Kpz8IXhz6zA7JHEdq9kGqF2rZn8LPEaEFO6Bexqf0orr7j-IKjNA2nCK7qQjAS25Ll5romYVBEvxO7emXgmJQJMsDIJnL98jVCBCOpCtUpxwxZ0nWU1B7o1PwJlDWpDE2rRrLDUZB_vHnMjFkYuiCo3daUA0oCVKEV3G2sPCfWW1eTRS86nflGeETTimEG3apNAr2JM8QKIzrJYdnO4xt-TeMxi0FoCSkdPZbFKXlmpKiCVGGukDSy4X1yP5KDegT-ISOUAJpfhtDFUXdvf5OdcGpDAWgusUHG_NtswJQ7tbkQ0F70SaYxXqNDqyRNnpF4ndKKMOLgBLs0eQBx9L9S9lddvDUSKSwQnmMhS09JHpUoPkAIHXPQigNRwyRDFlFDxGKpdkG32KyVAzPQblErcCZ9NzQRB1kFvKsoTMuUH1gXhbwRyTz1w21dSXtXSUeS3JDEP4YqHAuNYQx_wts7POo3dhlcwJE-PoY3WEKmHbvHy_eHP-NbTql9Iq0pR-ZUMNzWXxasHTLjpqrHCQQMi3hGRFJPp7yqmZAc-Mmjyi8yohPdtctkNDCyCBEhWoF1XmV8kVE8wBMnteCzBWPmIEI-y0W7u0HWK-w6hzUyzs1Zammb-NW4T5iX9r4GNYsTRvV4JQW9JGr-5HAdfc2eWCyDP5nMmxXbT_-ZFendwByNXC5T9i1ssSi8tM0TOky1Q1_aBTlikYqq5TxsJTln3otyfDb2FXpj5jgk51sXPDKxut4uP61Mmp-3CRwFt6oBd1rOnLqU3quw_iCihrg9nSPvnvpPFYq_gP8YJicuFgVz4-lbsYCCs_3Skj_A-0dOBI-HFGOfWAtc6dF9Hhv_d5cbVmdwexfxqsq2jjwuKWYl7Osbu4xc2k2uBxW2j8zxTtBlS_1tWtz4JTM2lFkVz_2n5QZJcztThVZnRrLJS544ldy0]--></g></svg>